<?xml version="1.0" standalone="no"?>
<!DOCTYPE svg PUBLIC "-//W3C//DTD SVG 20010904//EN"
 "http://www.w3.org/TR/2001/REC-SVG-20010904/DTD/svg10.dtd">
<svg version="1.0" xmlns="http://www.w3.org/2000/svg"
 width="1024.000000pt" height="1024.000000pt" viewBox="0 0 1024.000000 1024.000000"
 preserveAspectRatio="xMidYMid meet">

<g transform="translate(0.000000,1024.000000) scale(0.100000,-0.100000)"
fill="#000000" stroke="none">
<path d="M4640 9360 c-152 -27 -279 -125 -340 -262 -30 -69 -43 -185 -30 -271
22 -146 58 -236 137 -341 56 -76 57 -115 3 -130 -59 -16 -498 -163 -620 -206
-116 -42 -197 -68 -304 -98 l-59 -17 -26 34 c-66 87 -95 112 -136 118 -31 4
-46 0 -65 -15 -22 -18 -25 -29 -28 -105 l-4 -85 -41 24 c-26 14 -58 24 -84 24
-34 0 -46 -5 -69 -32 -15 -18 -41 -37 -58 -43 -20 -6 -36 -21 -44 -41 -9 -18
-31 -39 -59 -54 -55 -29 -75 -58 -71 -101 l3 -33 -165 -78 c-403 -190 -796
-382 -817 -400 -7 -6 -13 -25 -13 -42 0 -36 39 -125 63 -145 15 -12 17 -39 17
-203 0 -178 -1 -192 -25 -247 -35 -84 -44 -202 -19 -258 17 -39 22 -43 54 -43
54 0 73 9 96 44 20 32 20 37 8 116 -8 46 -25 118 -39 159 -30 85 -54 330 -38
391 11 43 -12 31 638 337 308 144 351 163 379 163 6 0 18 -13 27 -29 10 -18
42 -40 85 -62 68 -34 71 -37 227 -244 87 -115 182 -246 212 -290 42 -62 72
-94 137 -141 122 -91 151 -105 218 -111 55 -5 67 -3 138 32 61 30 96 57 164
126 48 49 90 89 93 89 3 0 5 -29 5 -64 0 -44 -5 -67 -15 -76 -12 -10 -15 -42
-15 -167 l0 -155 -42 -93 c-39 -90 -44 -95 -88 -114 -169 -73 -603 -296 -815
-419 -265 -153 -396 -251 -442 -329 -24 -41 -25 -51 -21 -126 6 -97 51 -239
105 -337 55 -98 132 -169 215 -199 19 -7 36 -28 57 -69 16 -32 53 -99 82 -148
115 -196 294 -532 303 -569 5 -18 -3 -30 -33 -58 -89 -81 -236 -148 -385 -176
-138 -27 -188 -49 -223 -99 -15 -22 -40 -46 -55 -55 -55 -32 -24 -109 60 -151
125 -63 265 -73 617 -46 437 33 504 46 554 108 39 46 39 67 1 80 -32 12 -32
11 -55 150 -19 115 -36 151 -76 159 -21 4 -31 13 -35 32 -3 14 -12 51 -20 81
-17 72 -59 272 -79 385 -9 50 -34 164 -56 254 -21 90 -39 167 -39 172 0 4 21
22 48 40 62 42 110 88 128 121 18 35 86 69 269 137 77 29 169 63 204 77 35 14
67 21 71 17 23 -25 248 -702 281 -843 12 -52 26 -113 31 -135 7 -32 29 -59
102 -130 54 -54 113 -100 142 -114 49 -23 50 -24 67 -95 14 -61 55 -221 135
-526 11 -41 31 -139 46 -217 l26 -141 -30 -72 c-17 -40 -44 -96 -61 -124 -47
-77 -159 -213 -238 -289 -56 -54 -80 -87 -111 -153 -43 -91 -49 -127 -24 -162
37 -53 166 -88 288 -79 166 12 323 94 422 219 32 40 93 110 136 155 90 95 129
163 111 192 -15 23 -43 131 -43 162 0 12 -14 51 -31 87 l-32 64 13 342 c7 189
11 409 8 490 l-6 148 39 35 c53 48 133 159 164 225 32 70 40 132 26 198 -13
62 -99 235 -218 443 -47 81 -83 150 -81 153 5 5 44 -8 115 -37 42 -17 50 -8
31 38 -9 21 -34 81 -55 133 -22 52 -64 160 -92 240 -29 80 -58 151 -63 158 -6
6 -24 12 -41 12 -41 0 -106 68 -136 143 l-23 56 52 60 c28 33 58 62 66 65 19
7 19 76 0 76 -26 0 -64 -40 -70 -74 -7 -35 -18 -48 -49 -59 -26 -10 -32 16
-17 81 24 106 49 125 189 143 l91 13 115 -58 c63 -31 115 -61 115 -67 0 -5
-12 -1 -27 11 -40 28 -139 60 -190 60 -55 0 -77 -22 -92 -91 -6 -28 -21 -73
-32 -98 -20 -45 -21 -45 -33 -23 -17 32 -26 17 -26 -44 0 -29 -4 -56 -10 -59
-19 -12 -10 -36 18 -45 15 -5 40 -17 56 -25 18 -10 70 -17 145 -21 l116 -7 28
29 c41 41 53 67 92 214 42 155 71 234 163 452 38 90 75 178 82 196 14 36 27
39 75 16 39 -18 46 -32 36 -71 -7 -27 -5 -30 71 -70 98 -53 198 -133 333 -270
170 -173 368 -488 456 -727 46 -123 96 -338 115 -493 18 -149 16 -441 -5 -538
-5 -27 -17 -88 -26 -135 -43 -226 -140 -465 -280 -690 -100 -162 -186 -272
-303 -389 l-94 -95 -14 32 c-15 37 -29 39 -116 16 -33 -8 -65 -13 -70 -12 -6
2 12 21 39 41 55 40 208 197 275 280 64 81 192 280 241 376 92 177 160 410
188 634 27 222 -1 595 -61 815 -52 188 -183 447 -319 630 -82 109 -287 316
-408 410 l-93 72 -23 -37 c-13 -21 -33 -63 -45 -94 l-21 -57 31 -13 c84 -35
294 -224 403 -364 112 -143 239 -367 283 -500 62 -186 95 -424 96 -690 0 -164
-2 -191 -28 -300 -86 -364 -208 -595 -488 -921 -43 -51 -108 -119 -145 -151
-127 -111 -318 -256 -370 -280 l-52 -24 6 -119 c8 -163 0 -183 -137 -325 -58
-60 -120 -131 -138 -157 -97 -142 -277 -235 -474 -246 -84 -4 -108 -1 -170 19
-86 27 -140 71 -164 135 -15 38 -15 52 -5 98 6 29 20 69 31 89 l19 36 -42 5
c-23 3 -82 10 -132 17 -177 21 -500 122 -644 200 l-55 29 -36 -24 c-41 -27
-97 -45 -120 -39 -37 10 -59 27 -64 49 -16 61 -177 176 -269 191 -31 5 -37 3
-37 -12 0 -42 125 -159 235 -220 33 -18 60 -38 59 -44 -1 -6 -2 -20 -2 -31 -2
-13 -7 -17 -18 -13 -12 4 -15 0 -14 -18 1 -13 1 -26 0 -29 -8 -23 -5 -41 8
-53 53 -43 201 -115 377 -182 13 -5 15 -9 7 -12 -16 -6 -6 -23 14 -23 8 0 12
5 9 10 -3 6 1 10 9 10 9 0 16 -7 16 -16 0 -25 -73 -12 -151 26 -34 16 -66 30
-70 30 -4 0 -51 20 -104 45 -124 58 -314 179 -436 276 -102 83 -290 273 -362
366 -178 233 -343 528 -420 751 -53 152 -111 424 -127 592 -15 166 -12 428 5
543 55 364 199 749 397 1057 198 309 379 502 651 695 31 22 57 44 57 48 0 10
-91 96 -102 97 -5 0 -26 -17 -49 -37 l-40 -37 -32 19 c-70 40 -404 269 -432
296 -17 16 -36 29 -42 29 -29 0 -342 -301 -440 -423 l-62 -77 26 -27 c14 -16
53 -68 86 -118 87 -130 233 -329 251 -344 24 -20 20 -36 -22 -99 -21 -31 -55
-88 -76 -127 -21 -38 -40 -72 -41 -73 -2 -2 -48 8 -102 22 -123 32 -250 52
-418 66 -71 6 -137 13 -146 16 -12 3 -22 -9 -37 -43 -11 -27 -43 -102 -72
-168 -48 -110 -135 -354 -128 -360 2 -1 19 -10 38 -20 19 -10 91 -55 160 -100
69 -45 190 -118 270 -162 l145 -80 -3 -99 c-2 -59 -8 -104 -15 -110 -7 -7 -41
-19 -77 -27 -125 -29 -376 -107 -472 -147 -53 -22 -103 -40 -112 -40 -13 0
-16 -13 -16 -67 0 -78 40 -467 49 -482 10 -16 374 -97 541 -121 80 -11 154
-23 165 -25 16 -3 26 -25 48 -96 33 -106 37 -95 -78 -182 -101 -77 -226 -180
-335 -277 -47 -42 -97 -84 -112 -93 -24 -15 -26 -20 -17 -44 13 -34 109 -197
169 -288 26 -38 59 -92 74 -120 15 -27 35 -60 44 -73 l18 -23 46 20 c25 10
131 45 234 76 104 32 238 79 299 106 60 27 115 49 120 49 6 0 35 -24 64 -54
l54 -54 -16 -39 c-8 -21 -61 -135 -117 -253 -56 -118 -111 -237 -121 -264 -11
-27 -31 -68 -44 -91 -14 -23 -25 -44 -25 -47 0 -3 15 -15 34 -26 35 -21 227
-166 368 -280 l78 -63 78 52 c130 88 241 185 389 342 l82 88 58 -29 c32 -16
74 -34 93 -41 l35 -11 3 -288 c1 -158 6 -320 10 -360 l7 -74 130 -33 c72 -18
168 -44 215 -58 47 -14 121 -33 164 -43 l80 -17 19 24 c37 46 162 310 261 552
l15 38 122 -3 122 -3 9 -30 c34 -116 97 -294 130 -369 36 -83 96 -207 102
-213 8 -9 249 42 366 76 74 22 163 45 198 52 50 9 63 16 67 33 2 11 12 122 20
246 9 124 19 263 23 309 l7 83 55 18 c30 9 79 27 109 40 l54 24 81 -85 c96
-100 177 -170 264 -228 34 -23 78 -56 97 -72 l34 -30 108 73 c59 39 173 118
252 175 79 57 150 107 158 111 12 7 4 37 -52 176 -36 93 -95 227 -131 298 -53
107 -63 133 -52 142 7 7 45 43 84 80 l72 67 58 -29 c83 -41 224 -86 399 -127
83 -19 160 -37 172 -41 19 -5 38 17 153 170 72 96 149 207 171 246 22 38 44
72 49 75 9 6 -337 351 -408 407 -74 59 -75 61 -34 161 l35 87 97 0 c52 0 150
7 215 15 118 14 383 66 403 79 5 3 15 27 21 53 25 110 81 374 94 445 l14 77
-61 20 c-70 22 -340 122 -499 185 l-108 42 -4 84 c-3 46 -7 92 -10 101 -4 13
8 22 52 39 164 65 388 191 498 279 38 31 75 61 83 67 12 9 9 29 -17 128 -17
64 -38 133 -45 154 -8 20 -31 90 -51 155 -36 115 -38 118 -64 113 -33 -7 -314
-23 -531 -31 l-165 -7 -34 70 -34 70 98 108 c114 127 224 263 284 354 24 36
52 74 63 86 19 21 18 22 -103 170 -67 82 -156 191 -197 242 l-74 94 -22 -20
c-11 -11 -124 -80 -251 -152 -126 -73 -254 -148 -282 -166 l-53 -34 -42 41
c-24 23 -53 48 -65 56 -26 17 -24 23 42 178 26 61 71 181 101 267 29 87 63
175 74 197 l20 40 -32 17 c-18 10 -67 41 -108 69 -124 87 -423 265 -442 265
-25 -1 -185 -162 -266 -267 l-24 -33 26 -35 c15 -19 31 -35 36 -35 5 0 33 32
64 71 68 88 154 179 168 179 17 0 308 -176 308 -186 0 -2 -26 8 -57 22 -32 15
-83 37 -114 50 -31 13 -73 33 -93 45 -20 12 -38 20 -40 18 -2 -2 -34 -44 -71
-94 -70 -94 -105 -154 -105 -179 0 -8 23 -43 50 -77 28 -35 53 -74 56 -86 8
-30 0 -116 -19 -223 -9 -47 -21 -143 -27 -214 -11 -144 -21 -168 -74 -186 -48
-15 -61 -5 -36 27 17 22 20 41 20 122 0 114 15 242 40 348 14 58 16 82 8 98
-6 11 -53 74 -104 141 -90 118 -180 251 -299 444 -32 52 -69 109 -81 125 -60
82 -60 80 18 189 70 100 74 115 26 116 -10 0 -41 9 -70 19 -29 11 -82 27 -118
36 -36 9 -153 46 -260 82 -107 36 -217 71 -244 77 -97 22 -88 67 21 103 l71
24 174 -80 c122 -56 230 -96 361 -135 102 -31 242 -79 309 -107 68 -28 173
-68 233 -89 261 -90 379 -147 569 -278 156 -107 205 -123 245 -83 11 11 21 19
21 17 0 -3 19 1 43 9 23 8 96 21 162 31 66 9 122 18 124 20 2 2 -21 4 -51 4
-115 0 -273 61 -453 175 -190 120 -431 216 -790 315 -441 121 -632 182 -660
211 -5 6 8 3 30 -6 244 -103 369 -115 721 -69 235 31 347 28 497 -10 150 -38
355 -144 498 -257 20 -16 42 -29 49 -29 7 0 56 29 109 65 76 51 110 68 161 78
l65 13 -63 7 c-112 12 -183 37 -352 123 -91 46 -205 97 -255 113 -193 64 -459
78 -710 39 -166 -26 -451 -31 -549 -9 -103 23 -133 45 -78 57 15 3 101 26 192
50 387 103 1187 255 1953 371 64 9 117 20 117 23 0 6 -81 32 -220 70 -112 31
-179 36 -275 20 -33 -6 -118 -19 -190 -30 -174 -27 -600 -107 -700 -131 -44
-10 -138 -30 -210 -45 -155 -30 -570 -135 -815 -205 -217 -63 -295 -79 -332
-72 l-28 6 0 93 c0 152 -26 318 -62 396 -53 117 -155 196 -287 224 -72 15
-112 16 -181 4z m75 -70 c-11 -4 -47 -18 -80 -31 -44 -17 -76 -39 -118 -81
-88 -90 -125 -152 -132 -220 -15 -165 -15 -173 -5 -158 8 11 9 8 4 -12 -7 -33
19 -125 47 -158 l20 -25 -14 30 c-8 17 -17 45 -20 63 -8 40 4 41 69 7 81 -43
166 -30 295 44 39 23 74 40 76 37 8 -7 -59 -53 -140 -95 -72 -38 -84 -41 -157
-41 l-80 0 25 -56 c14 -31 42 -79 62 -107 21 -28 31 -48 23 -43 -8 4 4 -11 28
-33 67 -62 188 -101 266 -87 48 9 129 85 160 149 14 29 33 91 42 140 17 88 39
123 28 45 -19 -140 -53 -218 -122 -287 -73 -72 -141 -86 -253 -51 -162 50
-328 225 -389 410 -30 93 -37 229 -16 305 36 123 110 203 225 242 63 21 203
33 156 13z m2875 -188 c0 -4 -80 -20 -177 -35 -234 -37 -820 -149 -1033 -197
-52 -12 -140 -32 -195 -45 -55 -12 -264 -65 -465 -117 -325 -86 -497 -126
-420 -99 104 37 420 128 590 170 69 17 135 36 148 41 30 13 421 93 1077 220
82 16 237 39 430 63 17 2 33 5 38 6 4 0 7 -2 7 -7z m-2591 -105 c24 -8 50 -22
57 -31 19 -27 35 -114 28 -152 -8 -43 -23 -43 -106 -4 -79 37 -111 38 -179 1
-30 -15 -76 -40 -103 -55 -27 -14 -65 -26 -83 -26 -99 0 -158 106 -99 177 33
40 113 81 189 99 72 16 228 12 296 -9z m-398 -855 c16 -63 29 -131 29 -151
l-1 -36 -16 30 c-29 54 -54 135 -73 244 -25 134 -24 136 7 77 14 -28 38 -101
54 -164z m-151 184 c0 -10 -36 -27 -107 -49 -151 -48 -383 -135 -543 -202
-227 -95 -232 -96 -242 -57 -7 26 37 43 632 241 186 63 230 76 253 80 4 0 7
-5 7 -13z m690 -142 c-67 -63 -133 -140 -257 -304 -214 -283 -395 -609 -514
-924 -45 -122 -79 -179 -95 -163 -14 14 29 174 83 312 172 442 415 813 681
1041 68 58 150 109 160 99 2 -2 -24 -30 -58 -61z m-741 -36 c-7 -13 -63 -72
-125 -133 -113 -109 -147 -153 -204 -263 -42 -82 -158 -263 -209 -327 -24 -30
-66 -69 -93 -86 -46 -30 -52 -31 -89 -20 -47 14 -218 142 -283 211 -36 38 -46
57 -46 83 0 47 8 50 40 14 25 -28 35 -32 80 -32 42 0 55 4 71 24 23 28 24 80
4 147 -8 27 -15 52 -15 56 0 25 718 310 878 347 1 1 -3 -9 -9 -21z m150 -341
c19 -72 19 -107 2 -107 -4 0 -20 27 -36 60 -46 96 -90 124 -61 39 19 -54 20
-85 1 -44 -19 42 -19 10 0 -80 8 -38 15 -81 14 -95 -1 -25 -56 180 -79 298
-23 114 -33 73 -28 -113 5 -153 4 -174 -9 -163 -8 6 -24 30 -35 52 l-21 41 -9
-30 c-18 -66 -30 -256 -24 -380 3 -72 2 -143 -3 -160 -5 -16 -10 -27 -10 -22
-1 4 -8 49 -16 100 -8 50 -21 179 -29 286 -9 107 -18 196 -21 199 -8 9 -23
-44 -46 -161 -12 -64 -26 -114 -31 -111 -4 3 -8 31 -9 62 l0 57 -20 -45 c-12
-25 -30 -81 -41 -125 -30 -117 -28 -115 -48 -71 -21 46 -30 36 -39 -43 l-6
-56 -37 60 c-21 33 -38 65 -38 71 0 6 25 39 55 74 78 87 190 265 269 425 33
67 81 119 157 168 14 9 50 48 79 86 l54 68 22 -131 c13 -72 32 -166 43 -209z
m-1245 282 c14 -17 37 -49 50 -72 26 -45 81 -205 73 -213 -2 -2 -24 38 -47 90
-40 89 -110 180 -110 145 -1 -23 -29 34 -30 59 0 33 33 28 64 -9z m2243 -150
c-154 -145 -256 -300 -323 -489 -22 -63 -23 -63 -17 -20 15 121 98 298 196
420 49 61 224 200 250 200 7 0 -41 -50 -106 -111z m-2027 62 c0 -11 3 -26 6
-35 10 -26 -22 -19 -34 8 -7 17 -7 27 1 35 16 16 27 13 27 -8z m-50 -192 c34
-103 37 -127 14 -136 -19 -7 -29 4 -38 37 l-7 25 21 -24 c11 -13 23 -22 25
-19 3 3 -17 67 -45 144 -27 76 -50 143 -50 149 1 22 52 -90 80 -176z m-385
161 c12 -19 -7 -73 -33 -97 -28 -26 -18 -30 24 -8 18 9 56 15 97 15 62 0 71
-3 98 -29 20 -20 29 -39 29 -61 0 -34 -23 -136 -41 -182 -13 -33 -57 -64 -71
-50 -15 15 -4 130 18 184 10 26 16 50 12 53 -3 3 -22 9 -42 12 -29 5 -44 1
-68 -17 l-31 -23 -29 34 c-15 19 -37 45 -48 58 -27 32 -25 53 6 90 26 31 66
41 79 21z m-129 -87 c16 -48 49 -112 77 -146 23 -30 27 -41 17 -47 -25 -15
-69 12 -120 73 -57 70 -62 103 -20 124 33 17 40 16 46 -4z m-67 -120 c47 -55
78 -109 69 -119 -22 -22 -124 49 -154 108 -12 23 -13 33 -3 44 20 25 46 15 88
-33z m-36 -115 c15 -31 14 -48 -2 -48 -9 0 -31 45 -31 65 0 25 17 16 33 -17z
m-82 -45 c8 -25 8 -38 1 -45 -16 -16 -40 8 -48 47 -12 68 24 67 47 -2z m1726
25 c-3 -8 -6 -5 -6 6 -1 11 2 17 5 13 3 -3 4 -12 1 -19z m1003 -129 c55 -109
228 -315 274 -327 l31 -8 -35 -32 c-38 -35 -64 -40 -96 -17 -31 21 -181 235
-211 302 -28 60 -37 148 -19 188 8 17 10 15 21 -21 7 -22 23 -60 35 -85z
m-2830 79 c22 -35 23 -59 3 -65 -14 -5 -43 47 -43 77 0 30 18 24 40 -12z m-84
-34 c25 -59 -8 -106 -34 -49 -15 33 -15 58 0 73 17 17 17 16 34 -24z m511 -10
c16 -25 16 -27 -2 -40 -27 -20 -62 -17 -85 6 -26 26 -25 34 3 48 38 18 65 14
84 -14z m-601 -35 c18 -35 12 -79 -11 -79 -17 0 -41 71 -32 94 10 25 25 19 43
-15z m-86 -89 c0 -16 -4 -32 -10 -35 -15 -9 -54 79 -46 101 7 17 10 17 32 -9
13 -16 24 -41 24 -57z m886 71 c-3 -5 -31 -26 -61 -46 -38 -25 -64 -35 -83
-33 -24 3 -21 5 23 21 28 9 64 28 80 42 30 24 51 33 41 16z m120 -62 c35 -28
64 -55 64 -60 0 -14 -51 -43 -58 -33 -4 5 -20 29 -35 53 -16 24 -37 46 -48 48
-15 4 -16 9 -8 24 5 10 12 19 15 19 4 0 35 -23 70 -51z m-1116 -5 c13 -33 13
-84 0 -84 -12 0 -40 53 -40 78 0 39 26 43 40 6z m-81 -64 c5 -17 7 -40 2 -52
-7 -20 -8 -20 -29 7 -13 16 -22 42 -22 62 0 30 2 33 19 24 10 -6 24 -24 30
-41z m1072 -54 c30 -37 39 -58 39 -87 0 -49 15 -57 46 -24 36 39 49 28 49 -41
0 -32 2 -61 5 -64 15 -12 71 -113 68 -121 -2 -5 -19 10 -38 35 -19 25 -79 100
-134 167 -116 144 -144 187 -124 193 37 12 43 12 47 2 2 -6 21 -33 42 -60z
m-1168 12 c17 -35 14 -72 -6 -65 -18 6 -48 73 -41 91 9 24 26 15 47 -26z
m1430 11 c46 -38 70 -82 61 -111 -6 -19 -7 -19 -16 -5 -5 10 -17 17 -26 17
-10 0 -35 17 -55 38 -35 36 -37 41 -26 65 7 15 15 27 18 27 4 0 23 -14 44 -31z
m-1529 -41 c17 -24 22 -78 7 -78 -13 0 -51 63 -51 84 0 23 26 20 44 -6z m1808
-35 c27 -29 57 -90 38 -78 -6 4 -10 -6 -10 -22 l0 -28 -25 30 c-21 26 -24 27
-25 10 0 -11 -9 -31 -20 -45 l-20 -25 0 77 c0 115 13 132 62 81z m-1967 -35
c36 -80 41 -107 20 -114 -10 -4 -25 -3 -34 3 -20 13 -69 93 -70 115 -1 16 34
48 52 48 4 0 19 -24 32 -52z m1829 20 c6 -11 6 -34 -3 -73 -7 -31 -14 -55 -16
-53 -1 2 -6 36 -9 77 -6 56 -5 72 5 69 7 -2 17 -11 23 -20z m1870 -106 c66
-83 67 -84 60 -130 -4 -26 -20 -94 -36 -151 -42 -152 -45 -184 -19 -210 11
-11 33 -21 47 -21 26 0 26 -1 19 -47 -14 -97 -64 -274 -92 -325 -25 -47 -32
-53 -63 -56 -39 -3 -35 -9 -86 126 -20 52 -24 81 -23 165 0 56 4 138 9 182 l9
80 -31 26 -31 26 33 98 c18 54 50 141 72 194 22 53 42 104 45 114 3 10 9 17
13 15 4 -2 38 -40 74 -86z m356 -48 c0 -1 -18 -13 -40 -28 -65 -43 -120 -97
-141 -138 l-20 -38 43 5 43 6 -35 -16 c-19 -9 -48 -28 -63 -43 l-29 -27 48 -5
48 -5 -67 -26 c-37 -14 -67 -23 -67 -20 1 29 71 277 84 296 20 30 62 42 139
41 31 0 57 -1 57 -2z m290 -151 c-7 -43 -19 -98 -26 -123 l-14 -45 5 50 c6 62
36 207 42 201 3 -2 -1 -40 -7 -83z m-3409 31 c7 -9 69 -59 137 -111 68 -53
121 -97 118 -100 -6 -6 -116 50 -200 101 -33 20 -63 36 -67 36 -12 0 -259
-248 -259 -260 0 -35 174 -278 233 -326 l35 -28 -19 -37 c-25 -51 -32 -53 -62
-21 -49 51 -307 376 -307 387 0 10 360 373 371 374 4 1 13 -6 20 -15z m3828
-66 c-8 -14 -14 -18 -17 -10 -4 13 17 46 25 38 3 -2 -1 -15 -8 -28z m891 -59
c9 -17 8 -23 -7 -35 -23 -17 -260 -173 -383 -252 l-95 -60 -28 26 c-34 32 -45
22 153 139 80 48 186 112 235 144 50 32 95 58 102 58 7 1 17 -8 23 -20z
m-1380 -95 c0 -2 -9 0 -20 6 -11 6 -20 13 -20 16 0 2 9 0 20 -6 11 -6 20 -13
20 -16z m-1089 -15 c135 -12 216 -29 211 -44 -2 -5 -13 -9 -25 -7 -109 14
-266 17 -325 6 l-67 -12 65 -1 c76 -2 109 -15 60 -24 -17 -4 -29 -11 -26 -16
8 -12 -80 -21 -209 -21 -103 0 -389 -31 -427 -45 -49 -19 14 -24 230 -18 186
4 272 2 402 -12 181 -18 229 -34 109 -36 -55 -1 -66 -3 -44 -9 17 -4 54 -8 83
-9 28 0 52 -6 52 -11 0 -6 -18 -10 -42 -9 -24 1 -226 -1 -449 -6 l-407 -8 3
122 c1 67 6 125 9 128 4 4 53 15 109 24 123 21 503 25 688 8z m814 -69 c-3
-63 -6 -71 -25 -90 -11 -11 -31 -20 -45 -20 -34 0 -32 -15 4 -30 19 -7 28 -17
24 -26 -3 -8 -8 -38 -12 -67 -4 -32 -11 -51 -19 -50 -6 2 -21 -16 -33 -40 -29
-57 -78 -107 -105 -107 -13 0 -25 3 -27 8 -3 4 6 43 20 87 13 44 35 136 48
205 30 147 39 160 120 160 52 0 52 0 50 -30z m116 -149 c-38 -96 -72 -166 -56
-116 14 45 89 224 92 221 2 -2 -14 -49 -36 -105z m1779 0 c0 -12 -150 -171
-161 -171 -5 0 2 12 15 28 13 15 47 55 75 90 48 58 71 75 71 53z m-2500 -41
c0 -5 -15 -9 -32 -9 l-33 1 30 8 c17 4 31 8 33 9 1 0 2 -3 2 -9z m-883 -282
c22 -95 39 -175 36 -178 -10 -11 -45 51 -85 153 l-42 107 -12 -39 c-6 -21 -25
-59 -43 -84 -25 -37 -91 -168 -91 -182 0 -4 276 -178 308 -194 12 -7 22 -16
22 -21 0 -18 -37 -10 -115 26 -74 34 -111 41 -63 11 120 -74 467 -257 633
-333 93 -42 40 -41 -67 2 -230 91 -681 314 -824 407 l-30 20 38 91 c38 89 76
176 136 308 32 71 33 71 127 76 l30 2 42 -172z m509 112 c12 -33 21 -47 28
-40 29 29 40 7 86 -170 25 -97 95 -254 109 -246 5 3 25 -31 44 -77 20 -45 63
-147 97 -227 34 -80 82 -176 107 -214 24 -37 43 -69 41 -70 -2 -1 -48 -31
-104 -68 l-101 -66 -101 306 c-114 344 -191 620 -221 794 -24 135 -24 128 -12
128 5 0 17 -23 27 -50z m859 -125 c50 -25 81 -45 70 -44 -34 1 -198 63 -203
77 -7 24 44 11 133 -33z m-1749 -102 c-39 -74 -58 -91 -137 -119 -40 -15 -90
-37 -110 -49 -20 -13 -92 -52 -160 -86 l-124 -63 40 -7 c22 -3 34 -7 27 -8 -7
0 -10 -6 -7 -11 8 -13 -32 -28 -135 -50 -84 -18 -84 -19 -33 -19 28 -1 55 -5
58 -11 9 -14 -69 -60 -180 -103 -167 -66 -260 -139 -272 -213 -3 -21 -10 -42
-16 -45 -17 -11 2 -75 50 -171 52 -104 105 -167 166 -197 39 -19 40 -21 14
-21 -77 0 -209 94 -264 188 -44 75 -83 200 -83 269 0 56 3 66 31 98 71 81 311
242 549 368 191 101 603 307 607 303 3 -2 -7 -26 -21 -53z m1791 -95 c-3 -8
-6 -5 -6 6 -1 11 2 17 5 13 3 -3 4 -12 1 -19z m-3717 -198 c171 -27 390 -80
390 -94 0 -6 -6 -21 -14 -32 l-15 -21 -118 24 c-166 33 -405 75 -408 71 -7
-10 -98 -257 -102 -279 -3 -14 1 -30 9 -36 27 -22 186 -98 317 -153 126 -52
136 -58 139 -85 3 -26 2 -27 -26 -22 -67 14 -449 187 -506 230 -19 14 -17 19
44 178 99 258 95 249 127 244 15 -2 89 -14 163 -25z m6100 -59 c11 -21 14 -20
-105 -41 -67 -11 -375 -47 -444 -52 -41 -2 -45 0 -54 25 -5 16 -7 30 -6 32 2
1 132 14 289 28 157 13 290 25 297 26 7 0 17 -8 23 -18z m0 -422 c-109 -59
-224 -113 -260 -123 -14 -4 56 33 155 83 198 98 254 120 105 40z m-3574 -64
c88 -121 456 -578 548 -680 44 -49 92 -103 106 -119 l25 -29 -34 19 c-50 27
-304 283 -392 394 -105 133 -198 274 -299 455 -40 73 -30 64 46 -40z m-418 40
c-2 -3 -49 -16 -104 -30 -54 -13 -157 -44 -229 -68 -71 -25 -150 -47 -175 -50
-36 -5 -29 -1 40 23 47 15 117 40 155 55 84 33 331 88 313 70z m525 -413 c46
-81 108 -194 137 -252 61 -118 167 -295 211 -351 35 -45 36 -53 4 -45 -32 8
-32 -5 -1 -41 27 -32 79 -57 141 -69 37 -7 38 -8 11 -12 -67 -9 -232 75 -343
174 -54 47 -61 59 -67 101 -9 60 -32 141 -103 356 -66 202 -93 298 -82 292 4
-3 45 -72 92 -153z m-1003 113 c-14 -8 -29 -14 -35 -14 -5 0 1 6 15 14 14 8
30 14 35 14 6 0 -1 -6 -15 -14z m3840 -60 c0 -8 -4 -15 -10 -15 -5 0 -7 7 -4
15 4 8 8 15 10 15 2 0 4 -7 4 -15z m17 -17 c-3 -7 -5 -2 -5 12 0 14 2 19 5 13
2 -7 2 -19 0 -25z m-8 -48 c1 18 4 21 12 13 16 -16 5 -386 -14 -473 l-14 -65
-6 45 c-10 66 -11 114 -8 330 2 176 4 192 16 160 12 -30 14 -32 14 -10z
m-4087 -97 c-33 -38 -73 -80 -89 -95 -30 -28 -77 -51 -87 -41 -10 11 19 41 99
100 44 33 89 70 99 81 11 12 23 22 29 22 5 0 -18 -30 -51 -67z m-143 11 c7 -6
-52 -113 -60 -108 -11 6 -43 68 -53 101 -7 21 -5 21 51 16 32 -3 60 -7 62 -9z
m1946 -114 c10 -11 16 -20 13 -20 -3 0 -13 9 -23 20 -10 11 -16 20 -13 20 3 0
13 -9 23 -20z m-1652 -43 c-16 -17 -40 -48 -53 -67 -13 -19 -39 -51 -58 -71
l-34 -37 105 -41 c58 -22 110 -41 116 -41 6 0 11 -4 11 -10 0 -14 -3 -13 -105
16 -49 14 -108 30 -130 36 -22 6 -46 17 -54 24 -12 11 -10 14 12 19 16 4 55
43 107 105 44 54 86 101 93 103 23 8 20 -4 -10 -36z m-1404 14 c9 -6 11 -18 7
-37 -6 -29 -8 -29 -234 -83 -125 -30 -249 -60 -276 -68 -48 -14 -48 -15 -43
-51 3 -20 9 -86 13 -145 6 -98 9 -110 28 -117 44 -18 461 -60 534 -53 6 0 12
-3 12 -8 0 -19 -428 1 -566 27 l-32 6 -16 121 c-9 67 -16 155 -16 194 l0 73
38 16 c37 16 440 119 497 127 17 2 32 5 35 5 3 1 11 -2 19 -7z m1191 -33 c39
-28 38 -53 -2 -78 l-33 -20 -22 28 c-27 33 -28 50 -6 74 21 23 27 23 63 -4z
m2348 -54 c19 -55 11 -158 -18 -214 -22 -43 -80 -118 -80 -103 0 4 -6 -2 -14
-13 -8 -10 -18 -16 -22 -11 -4 4 -2 7 4 7 7 0 12 6 12 14 0 7 11 38 25 69 28
61 55 185 55 254 0 55 19 54 38 -3z m2546 -130 c17 -6 22 -24 8 -24 -5 0 -17
7 -28 15 -19 15 -8 20 20 9z m-4799 -53 c34 -20 73 -109 77 -175 5 -72 -19
-52 -77 64 -65 129 -65 151 0 111z m3982 -123 c-3 -8 -6 -5 -6 6 -1 11 2 17 5
13 3 -3 4 -12 1 -19z m-1 -33 c-3 -8 -1 -15 4 -15 23 0 9 -105 -29 -213 -121
-350 -222 -537 -438 -807 -102 -129 -321 -355 -332 -344 -3 3 0 9 8 13 7 5 12
11 12 15 -5 33 0 48 15 42 12 -5 15 -2 10 10 -5 12 13 37 57 83 63 66 211 246
323 396 60 80 138 212 189 322 39 85 129 346 150 436 10 42 22 77 28 77 5 0 7
-7 3 -15z m-3741 -3 c-6 -5 -38 -30 -72 -57 -35 -26 -63 -54 -63 -61 0 -22
-16 -16 -28 10 -9 21 -8 25 11 30 12 3 47 23 76 46 30 22 61 40 70 40 9 0 11
-3 6 -8z m4462 -189 c-20 -2 -52 -2 -70 0 -17 2 0 4 38 4 39 0 53 -2 32 -4z
m-2707 -54 c-86 -74 -278 -182 -313 -177 -38 6 -28 25 25 47 29 12 109 53 178
91 69 38 130 69 135 69 6 0 -6 -13 -25 -30z m-1898 4 c10 -9 18 -21 18 -26 0
-16 -64 -96 -77 -97 -6 0 -14 -6 -17 -12 -3 -8 -17 1 -40 26 l-34 40 56 43
c65 48 68 49 94 26z m1608 -51 c0 -21 -36 -82 -49 -82 -9 0 -31 84 -31 121 0
19 0 19 40 -1 23 -12 40 -28 40 -38z m-1769 -79 c27 -32 82 -136 127 -246 10
-24 16 -27 44 -23 18 3 76 8 128 11 110 7 193 21 235 42 l30 14 -23 -20 c-34
-30 -79 -40 -252 -56 -85 -8 -234 -24 -330 -36 -193 -24 -281 -22 -370 9 -105
37 -170 73 -170 94 0 5 13 0 28 -11 34 -24 117 -58 187 -77 70 -19 178 -17
333 6 74 11 136 20 138 20 26 0 -77 168 -145 236 -44 44 -52 57 -40 65 26 16
47 9 80 -28z m1889 -27 c0 -2 -7 -7 -16 -10 -8 -3 -12 -2 -9 4 6 10 25 14 25
6z m-1981 -40 c19 -19 28 -36 23 -40 -6 -3 -44 -11 -84 -16 -136 -17 -268 -39
-278 -45 -6 -3 -10 -15 -10 -26 0 -14 -7 -19 -29 -19 -35 0 -45 12 -37 45 10
38 44 54 173 80 65 13 136 31 158 39 22 8 42 15 46 15 3 1 20 -14 38 -33z
m2228 -26 c-16 -23 -117 -113 -154 -137 l-24 -16 62 -38 c34 -21 75 -43 91
-50 15 -6 28 -18 28 -25 0 -19 -1 -19 -101 31 -49 25 -97 45 -106 45 -8 0 -38
-16 -64 -35 -57 -41 -65 -42 -74 -14 -8 26 -1 33 48 49 20 6 37 15 37 20 0 4
-23 25 -51 46 -46 35 -97 99 -87 109 2 2 26 -14 53 -36 28 -22 72 -51 98 -65
47 -24 50 -25 75 -8 15 10 47 36 72 59 47 43 100 85 107 85 2 0 -2 -9 -10 -20z
m-327 -162 c0 -4 -7 -8 -15 -8 -8 0 -15 4 -15 9 0 5 -3 18 -7 28 -6 17 -5 17
15 -1 12 -11 22 -23 22 -28z m-2799 -50 c9 -21 9 -33 2 -35 -14 -5 -119 -80
-206 -146 -39 -31 -118 -91 -175 -133 -100 -74 -103 -77 -96 -107 l6 -32 -25
23 c-14 13 -31 37 -38 54 -14 35 -32 17 176 180 164 129 308 228 330 228 7 0
19 -14 26 -32z m2899 -65 c0 -41 -8 -58 -27 -64 -9 -3 -3 -22 17 -63 17 -32
30 -60 30 -62 0 -10 -26 -2 -43 13 -18 17 -19 17 -12 -22 4 -22 5 -37 1 -34
-3 3 -8 24 -11 45 -2 21 -13 65 -24 98 -23 64 -20 77 25 107 40 26 44 24 44
-18z m146 -158 l-58 -53 62 -42 c34 -23 59 -44 57 -47 -3 -3 -35 12 -71 32
l-66 37 -55 -31 c-47 -27 -55 -29 -55 -14 1 19 72 77 113 92 13 5 45 28 72 51
69 60 71 37 1 -25z m-101 -165 c-3 -6 -19 -17 -36 -25 -25 -14 -29 -14 -29 -1
0 8 8 20 18 25 22 13 55 14 47 1z m-2739 -92 c-32 -16 -63 -27 -69 -25 -7 2
15 18 48 34 33 17 64 28 69 25 5 -3 -17 -18 -48 -34z m2772 -14 c23 -16 52
-64 52 -85 0 -8 -7 -6 -19 5 -11 10 -22 13 -25 8 -3 -6 -27 -13 -54 -17 -26
-4 -60 -13 -77 -20 -29 -13 -30 -13 -5 -15 45 -2 56 -20 63 -98 4 -55 3 -72
-6 -68 -7 2 -47 13 -90 23 -42 10 -76 20 -74 23 1 3 26 53 55 112 29 59 64
116 79 128 31 24 70 26 101 4z m227 -328 c-9 -19 -47 -68 -85 -109 -37 -42
-87 -100 -109 -131 -43 -58 -117 -119 -188 -155 -158 -79 -420 -61 -452 30
-12 36 -7 36 29 1 50 -50 213 -68 334 -37 116 30 255 132 271 198 14 54 -50
122 -165 175 -41 19 -72 26 -122 26 l-67 1 30 31 31 32 61 -15 c94 -21 158
-65 245 -166 l33 -38 47 52 c93 103 97 112 95 203 l-1 81 14 -73 c13 -65 13
-76 -1 -106z m1936 119 c19 -8 27 -14 19 -14 -14 0 -72 28 -59 29 4 0 22 -7
40 -15z m-916 -25 c-3 -5 -20 -19 -38 -30 -32 -22 -32 -22 3 9 37 32 45 37 35
21z m-3627 -209 c-17 -31 -70 -117 -116 -191 -133 -210 -152 -243 -152 -257 0
-21 -17 -15 -39 13 l-21 26 57 107 c47 88 146 263 222 393 l16 27 32 -31 33
-31 -32 -56z m2180 23 c13 -9 22 -18 19 -20 -2 -2 -44 -6 -93 -8 -49 -2 -109
-11 -134 -19 l-45 -16 45 40 c25 22 59 43 75 47 35 10 100 -2 133 -24z m-145
-142 c26 -14 47 -29 47 -33 0 -13 -121 -88 -164 -101 -37 -12 -40 -11 -67 20
-16 18 -29 41 -29 51 0 24 46 80 74 91 30 12 84 1 139 -28z m-977 -178 c17
-14 17 -15 1 -10 -10 3 -23 6 -28 6 -5 0 -9 5 -9 10 0 14 13 12 36 -6z m2838
-101 c12 -36 -2 -27 -19 13 -8 20 -15 39 -15 42 0 12 27 -33 34 -55z m-2962
-186 c3 -97 1 -187 -8 -360 -6 -124 -7 -128 -28 -125 -21 3 -21 4 -21 278 0
151 4 283 8 293 5 14 11 16 27 7 17 -9 20 -22 22 -93z m1176 -145 c48 -106
147 -443 134 -456 -17 -17 -33 2 -63 76 -35 87 -129 418 -122 430 9 16 31 -6
51 -50z"/>
<path d="M4981 8961 c-11 -7 -11 -9 0 -14 8 -3 2 -6 -12 -6 -23 -1 -79 -45
-68 -55 14 -12 71 -36 88 -36 41 0 65 66 37 103 -15 19 -24 21 -45 8z"/>
<path d="M4603 8923 c-7 -2 -13 -10 -12 -16 0 -15 94 -87 111 -87 23 1 81 58
75 74 -10 26 -131 47 -174 29z"/>
<path d="M3876 7844 c-104 -35 -193 -67 -198 -72 -4 -4 -4 -32 2 -62 6 -29 13
-99 16 -154 8 -135 6 -131 54 -104 23 13 45 30 50 38 5 9 3 49 -6 95 -22 128
-27 118 79 149 101 31 133 53 173 125 13 24 23 45 22 46 -2 1 -88 -26 -192
-61z"/>
<path d="M3896 7690 c-26 -11 -50 -21 -53 -23 -2 -3 2 -29 9 -58 l14 -53 31
55 c17 30 38 61 47 68 17 14 22 32 9 30 -5 0 -30 -9 -57 -19z"/>
<path d="M3380 7136 c0 -2 7 -9 15 -16 13 -11 14 -10 9 4 -5 14 -24 23 -24 12z"/>
<path d="M5491 6985 c-12 -27 -29 -75 -37 -105 -14 -52 -14 -57 4 -94 16 -32
20 -36 25 -20 41 152 50 205 41 236 l-10 33 -23 -50z"/>
<path d="M5460 6508 c1 -124 16 -205 36 -186 7 8 40 138 49 194 6 39 5 42 -34
67 -22 15 -43 27 -46 27 -3 0 -5 -46 -5 -102z"/>
<path d="M4410 6630 l-35 -7 35 -1 c19 0 44 3 55 8 l20 9 -20 -1 c-11 0 -36
-4 -55 -8z"/>
<path d="M4015 6614 c-22 -13 -71 -36 -110 -51 -54 -22 -82 -41 -123 -84 -28
-31 -90 -79 -137 -108 -46 -28 -135 -91 -197 -140 -80 -63 -117 -86 -125 -79
-7 6 -12 13 -11 16 2 20 -3 36 -10 27 -4 -5 -16 -17 -27 -25 -11 -8 -4 4 16
25 35 38 69 94 69 113 0 12 -74 52 -97 52 -10 0 -33 -10 -51 -22 -42 -30 -122
-135 -129 -170 -3 -15 -11 -28 -17 -28 -13 0 -62 -64 -168 -220 -70 -102 -138
-229 -142 -264 -1 -12 -6 -28 -10 -35 -15 -23 0 -20 30 7 71 64 336 227 559
342 82 43 173 91 200 107 28 16 140 73 250 127 110 54 212 107 226 117 30 21
49 91 49 182 -1 49 -3 58 -11 44 -6 -10 -9 -27 -6 -38 5 -17 3 -18 -24 -4 -15
8 -41 15 -56 16 -15 1 -39 4 -52 8 -21 6 -15 11 51 44 87 43 88 43 89 20 0
-15 2 -15 9 2 11 26 12 45 3 44 -5 0 -26 -12 -48 -25z"/>
<path d="M5956 5988 c-8 -29 -25 -95 -38 -147 l-23 -94 42 -36 c111 -97 218
-248 304 -425 94 -194 139 -399 139 -625 0 -202 -26 -349 -86 -504 -112 -284
-263 -483 -511 -671 l-63 -47 0 -115 c0 -104 7 -133 25 -103 4 6 26 8 59 4 49
-6 53 -5 117 42 116 84 259 215 336 307 81 97 101 132 127 217 12 36 38 82 76
129 81 102 146 279 188 517 l18 102 -28 53 c-37 71 -37 128 0 199 l28 54 -18
107 c-46 282 -121 479 -218 573 -28 28 -82 100 -120 160 -38 61 -97 141 -131
178 -65 71 -184 177 -199 177 -5 0 -15 -24 -24 -52z"/>
<path d="M2651 5444 c0 -11 3 -14 6 -6 3 7 2 16 -1 19 -3 4 -6 -2 -5 -13z"/>
<path d="M2600 5303 c-37 -107 -66 -213 -42 -158 8 18 10 17 16 -11 4 -17 12
-31 19 -32 38 -4 99 -21 111 -31 11 -10 11 1 -5 51 -10 34 -24 98 -30 141 -9
61 -15 77 -26 73 -10 -4 -13 -1 -10 12 30 110 15 89 -33 -45z"/>
<path d="M2736 4886 c-9 -58 -16 -150 -16 -206 0 -95 30 -370 50 -450 30 -125
82 -303 102 -351 21 -51 25 -55 45 -46 13 6 21 18 21 31 -2 62 19 78 41 30 11
-26 14 -27 73 -20 33 3 72 6 86 6 21 0 24 3 19 28 -3 15 -9 36 -13 47 -7 19
-6 19 8 1 14 -18 15 -17 21 13 4 17 7 34 8 39 0 4 5 12 11 19 5 7 8 22 7 35
-1 13 2 34 8 48 6 14 15 36 20 49 8 21 14 8 44 -92 19 -64 38 -117 42 -117 5
0 28 16 51 36 42 35 43 38 34 73 -6 20 -30 72 -53 116 -24 44 -64 121 -89 170
l-45 90 -1 -68 c0 -61 -2 -67 -15 -53 -8 8 -25 23 -38 33 -31 24 -47 55 -47
92 0 16 -9 45 -19 63 -11 18 -26 65 -34 104 -17 83 -34 113 -85 147 -54 36
-120 103 -173 175 l-46 63 -17 -105z m311 -483 c-2 -16 -4 -5 -4 22 0 28 2 40
4 28 2 -13 2 -35 0 -50z m10 -75 c-3 -7 -5 -2 -5 12 0 14 2 19 5 13 2 -7 2
-19 0 -25z m170 -130 c-3 -8 -6 -5 -6 6 -1 11 2 17 5 13 3 -3 4 -12 1 -19z
m-110 -140 c-3 -8 -6 -5 -6 6 -1 11 2 17 5 13 3 -3 4 -12 1 -19z m20 -70 c-3
-8 -6 -5 -6 6 -1 11 2 17 5 13 3 -3 4 -12 1 -19z"/>
<path d="M2566 4628 c-27 -39 -20 -101 17 -149 17 -24 36 -42 42 -42 5 1 17
29 28 62 18 59 18 61 -2 105 -16 37 -25 46 -45 46 -14 0 -31 -9 -40 -22z"/>
<path d="M4080 3455 c-107 -79 -370 -103 -865 -80 l-180 8 56 -64 c54 -61 115
-110 207 -164 23 -15 120 -50 215 -79 151 -46 190 -63 322 -138 83 -47 170
-95 195 -108 83 -42 278 -109 424 -145 140 -35 348 -61 392 -50 32 7 108 96
200 231 102 150 110 173 94 272 -7 42 -14 82 -17 89 -4 10 -47 13 -192 13
-142 0 -207 5 -276 19 -105 22 -272 88 -418 166 -57 30 -108 55 -113 55 -6 0
-26 -11 -44 -25z m122 -256 c33 -18 50 -38 73 -82 17 -32 38 -63 47 -68 28
-15 257 -75 363 -95 55 -10 103 -23 107 -28 8 -12 -28 -35 -56 -36 -18 0 -18
-2 4 -24 12 -14 41 -34 64 -46 l41 -21 -85 5 c-215 12 -639 143 -707 219 -25
27 -43 79 -43 122 0 31 36 77 70 87 23 7 73 -7 122 -33z m758 -242 c13 -24 13
-30 0 -54 -35 -63 -105 -68 -140 -11 -19 31 -19 33 -2 63 37 62 108 63 142 2z"/>
<path d="M8160 1351 c23 -4 31 -9 23 -14 -7 -5 -17 -5 -23 -2 -6 3 -7 -1 -4
-9 8 -20 15 -20 40 -1 16 13 17 16 4 25 -8 5 -28 9 -45 9 -29 -2 -29 -2 5 -8z"/>
<path d="M7490 1345 c0 -2 10 -9 21 -16 13 -6 19 -7 15 -1 -3 6 2 13 11 15 10
3 3 5 -14 6 -18 0 -33 -1 -33 -4z"/>
<path d="M7408 1333 c7 -3 16 -2 19 1 4 3 -2 6 -13 5 -11 0 -14 -3 -6 -6z"/>
<path d="M6248 1203 c6 -2 18 -2 25 0 6 3 1 5 -13 5 -14 0 -19 -2 -12 -5z"/>
<path d="M6160 1193 c-35 -6 -70 -24 -64 -35 8 -13 40 -9 53 6 16 19 64 28 57
11 -3 -8 2 -12 12 -11 9 2 17 9 17 16 0 14 -33 20 -75 13z"/>
<path d="M6150 1150 c0 -6 7 -10 15 -10 8 0 15 2 15 4 0 2 -7 6 -15 10 -8 3
-15 1 -15 -4z"/>
<path d="M7056 975 c-9 -26 -7 -32 5 -12 6 10 9 21 6 23 -2 3 -7 -2 -11 -11z"/>
<path d="M5045 964 c-372 -22 -744 -58 -925 -89 -129 -23 -286 -74 -312 -102
-29 -31 -18 -50 51 -84 72 -36 121 -46 386 -79 345 -43 513 -53 920 -53 382 0
577 9 867 43 269 32 397 64 452 115 54 50 29 81 -99 120 -135 41 -195 54 -310
65 -60 7 -173 18 -250 26 -262 27 -641 46 -780 38z"/>
<path d="M7450 960 c0 -5 5 -10 11 -10 5 0 7 5 4 10 -3 6 -8 10 -11 10 -2 0
-4 -4 -4 -10z"/>
<path d="M6955 940 c-3 -5 -1 -10 4 -10 6 0 11 5 11 10 0 6 -2 10 -4 10 -3 0
-8 -4 -11 -10z"/>
<path d="M7615 939 c-4 -6 -14 -8 -22 -4 -13 4 -14 3 -3 -10 17 -20 27 -19 33
5 6 22 2 26 -8 9z"/>
<path d="M8275 911 c-3 -5 -2 -12 3 -15 5 -3 9 1 9 9 0 17 -3 19 -12 6z"/>
<path d="M6890 906 c0 -2 8 -10 18 -17 15 -13 16 -12 3 4 -13 16 -21 21 -21
13z"/>
<path d="M7480 898 c0 -4 4 -8 9 -8 6 0 12 4 15 8 3 5 -1 9 -9 9 -8 0 -15 -4
-15 -9z"/>
<path d="M8368 903 c7 -3 16 -2 19 1 4 3 -2 6 -13 5 -11 0 -14 -3 -6 -6z"/>
<path d="M7615 890 c3 -5 8 -10 11 -10 2 0 4 5 4 10 0 6 -5 10 -11 10 -5 0 -7
-4 -4 -10z"/>
<path d="M8425 890 c4 -6 11 -8 16 -5 14 9 11 15 -7 15 -8 0 -12 -5 -9 -10z"/>
<path d="M7660 880 c0 -5 5 -10 11 -10 5 0 7 5 4 10 -3 6 -8 10 -11 10 -2 0
-4 -4 -4 -10z"/>
<path d="M7800 875 c0 -8 4 -15 10 -15 5 0 7 7 4 15 -4 8 -8 15 -10 15 -2 0
-4 -7 -4 -15z"/>
<path d="M7402 858 c5 -15 28 -23 28 -10 0 5 -7 13 -16 16 -10 4 -14 1 -12 -6z"/>
<path d="M7565 860 c-3 -6 1 -7 9 -4 18 7 21 14 7 14 -6 0 -13 -4 -16 -10z"/>
<path d="M8510 860 c0 -5 5 -10 11 -10 5 0 7 5 4 10 -3 6 -8 10 -11 10 -2 0
-4 -4 -4 -10z"/>
<path d="M7835 849 c-11 -17 1 -21 15 -4 8 9 8 15 2 15 -6 0 -14 -5 -17 -11z"/>
<path d="M7455 839 c-4 -6 -5 -12 -2 -15 2 -3 7 2 10 11 7 17 1 20 -8 4z"/>
<path d="M7735 840 c3 -5 8 -10 11 -10 2 0 4 5 4 10 0 6 -5 10 -11 10 -5 0 -7
-4 -4 -10z"/>
<path d="M7780 841 c0 -10 19 -25 25 -20 1 2 -3 10 -11 17 -8 7 -14 8 -14 3z"/>
<path d="M7471 814 c0 -11 3 -14 6 -6 3 7 2 16 -1 19 -3 4 -6 -2 -5 -13z"/>
<path d="M7618 818 c-3 -7 9 -20 26 -29 17 -9 30 -24 30 -33 -1 -9 3 -16 9
-16 6 0 8 -2 5 -5 -9 -9 -58 6 -58 17 0 5 5 6 10 3 6 -3 10 -2 10 3 0 18 -13
21 -27 7 -13 -13 -13 -17 0 -30 8 -8 17 -11 21 -8 3 4 6 1 6 -5 0 -7 6 -11 12
-9 7 1 14 -8 16 -20 2 -13 9 -23 15 -23 31 0 56 14 61 33 5 20 4 20 -8 5 -13
-17 -26 -14 -26 5 0 6 3 7 7 4 3 -4 12 -2 20 4 7 6 13 8 13 3 1 -5 7 2 15 16
17 29 19 60 5 60 -5 0 -10 -7 -10 -16 0 -18 -36 -54 -53 -54 -6 0 -8 2 -5 5 5
5 -78 95 -87 95 -2 0 -5 -5 -7 -12z m92 -118 c0 -11 -4 -20 -10 -20 -5 0 -10
9 -10 20 0 11 5 20 10 20 6 0 10 -9 10 -20z"/>
<path d="M7857 823 c-4 -3 -7 -18 -6 -32 1 -26 1 -25 10 3 9 31 7 41 -4 29z"/>
<path d="M7070 809 c0 -5 5 -7 10 -4 6 3 10 8 10 11 0 2 -4 4 -10 4 -5 0 -10
-5 -10 -11z"/>
<path d="M7190 804 c0 -8 5 -12 10 -9 6 4 8 11 5 16 -9 14 -15 11 -15 -7z"/>
<path d="M7320 801 c0 -6 4 -13 10 -16 6 -3 7 1 4 9 -7 18 -14 21 -14 7z"/>
<path d="M7360 800 c0 -6 7 -13 15 -16 8 -4 13 -10 10 -14 -3 -5 0 -12 6 -16
7 -4 9 -3 5 4 -3 5 -2 12 3 14 5 1 -2 11 -15 21 -13 10 -24 13 -24 7z"/>
<path d="M7430 802 c0 -19 37 -29 75 -21 l40 8 -43 -3 c-31 -3 -45 0 -49 10
-5 15 -23 20 -23 6z"/>
<path d="M7540 806 c0 -2 7 -9 15 -16 9 -7 15 -8 15 -2 0 5 -7 12 -15 16 -8 3
-15 4 -15 2z"/>
<path d="M7708 794 c12 -8 19 -21 16 -27 -5 -9 -4 -9 5 -1 17 15 3 44 -22 44
-21 0 -21 0 1 -16z"/>
<path d="M7810 800 c0 -5 5 -10 10 -10 6 0 10 5 10 10 0 6 -4 10 -10 10 -5 0
-10 -4 -10 -10z"/>
<path d="M7223 788 c-17 -22 -26 -45 -10 -26 10 13 16 15 25 6 9 -9 12 -9 12
0 0 7 -5 12 -11 12 -5 0 -7 5 -4 10 9 14 -1 12 -12 -2z"/>
<path d="M7911 784 c0 -11 3 -14 6 -6 3 7 2 16 -1 19 -3 4 -6 -2 -5 -13z"/>
<path d="M7876 772 c-14 -42 -44 -64 -77 -57 -25 6 -29 4 -29 -14 0 -21 4 -21
160 -20 88 1 160 4 160 8 0 7 -12 9 -70 12 -16 1 -27 5 -25 8 2 4 -3 14 -10
24 -8 12 -15 14 -20 8 -9 -15 -50 -14 -63 2 -5 6 -12 21 -14 32 -4 19 -5 18
-12 -3z m5 -55 c-8 -8 -11 -7 -11 4 0 20 13 34 18 19 3 -7 -1 -17 -7 -23z m96
-14 c-3 -3 -11 -2 -17 2 -9 6 -9 10 1 16 14 8 27 -7 16 -18z m-45 10 c-6 -3
-10 -9 -6 -14 3 -5 1 -9 -4 -9 -21 0 -19 26 2 27 11 0 15 -1 8 -4z"/>
<path d="M7970 783 c0 -12 28 -38 34 -32 2 2 -5 13 -15 23 -11 11 -19 15 -19
9z"/>
<path d="M9216 782 c-3 -5 1 -9 9 -9 8 0 12 4 9 9 -3 4 -7 8 -9 8 -2 0 -6 -4
-9 -8z"/>
<path d="M8740 771 c0 -6 4 -13 10 -16 6 -3 7 1 4 9 -7 18 -14 21 -14 7z"/>
<path d="M7258 758 c-10 -24 18 -31 50 -12 24 13 11 12 -25 -3 -6 -2 -13 4
-15 14 -3 16 -4 16 -10 1z"/>
<path d="M7425 760 c-3 -6 1 -7 9 -4 18 7 21 14 7 14 -6 0 -13 -4 -16 -10z"/>
<path d="M7490 755 c0 -8 2 -15 4 -15 2 0 6 7 10 15 3 8 1 15 -4 15 -6 0 -10
-7 -10 -15z"/>
<path d="M7560 762 c0 -4 9 -8 20 -8 11 0 20 4 20 8 0 4 -9 8 -20 8 -11 0 -20
-4 -20 -8z"/>
<path d="M7810 761 c0 -5 6 -12 13 -15 6 -3 2 -3 -10 0 -13 3 -23 1 -23 -4 0
-11 46 -9 58 2 3 4 0 11 -8 16 -19 12 -30 12 -30 1z"/>
<path d="M7515 750 c-4 -6 -3 -10 2 -9 20 4 27 -2 13 -12 -13 -9 -12 -10 2 -5
13 4 20 -3 28 -27 l10 -32 -5 32 c-2 19 1 34 8 37 7 3 3 4 -8 3 -12 -1 -19 3
-17 11 2 14 -24 16 -33 2z"/>
<path d="M7447 736 c-4 -10 -1 -13 9 -9 15 6 19 23 5 23 -5 0 -11 -7 -14 -14z"/>
<path d="M6843 725 c-3 -9 -3 -18 -1 -21 3 -3 8 4 11 16 6 23 -1 27 -10 5z"/>
<path d="M8020 731 c0 -5 5 -13 10 -16 6 -3 10 -2 10 4 0 5 -4 13 -10 16 -5 3
-10 2 -10 -4z"/>
<path d="M8257 729 c7 -7 15 -10 18 -7 3 3 -2 9 -12 12 -14 6 -15 5 -6 -5z"/>
<path d="M7210 718 c0 -5 9 -8 19 -8 11 0 22 3 24 8 3 4 -6 7 -19 7 -13 0 -24
-3 -24 -7z"/>
<path d="M7604 722 c3 -6 1 -14 -4 -17 -7 -5 -5 -12 7 -21 21 -16 37 -18 28
-4 -3 6 -1 10 5 10 16 0 3 18 -22 31 -13 7 -18 7 -14 1z"/>
<path d="M7478 713 c6 -2 12 -11 12 -19 0 -9 -4 -12 -10 -9 -5 3 -10 1 -10 -5
0 -7 7 -9 17 -6 9 4 20 1 24 -5 5 -9 12 -8 24 5 10 9 14 20 10 24 -4 4 -10 1
-12 -5 -6 -17 -23 -16 -23 1 0 13 -22 27 -38 25 -4 0 -1 -3 6 -6z"/>
<path d="M6792 697 c-6 -7 -9 -23 -5 -35 3 -13 1 -22 -6 -22 -6 0 -11 5 -11
11 0 5 -4 7 -10 4 -6 -3 -10 4 -11 17 l0 23 -11 -23 c-6 -13 -17 -21 -24 -18
-8 3 -16 1 -19 -4 -4 -6 -12 -10 -18 -10 -7 0 -6 4 3 10 19 13 8 13 -25 0 -14
-5 -24 -6 -21 -1 3 5 -5 8 -18 7 -20 -1 -22 -4 -13 -15 7 -8 8 -12 2 -9 -5 3
-19 2 -30 -3 -11 -4 36 -5 105 -2 69 3 130 10 135 16 7 7 6 8 -2 3 -12 -7 -14
-3 -17 37 -1 6 5 11 12 9 8 -1 11 2 7 8 -8 13 -10 13 -23 -3z"/>
<path d="M7662 690 c0 -14 2 -19 5 -12 2 6 2 18 0 25 -3 6 -5 1 -5 -13z"/>
<path d="M8111 694 c0 -11 3 -14 6 -6 3 7 2 16 -1 19 -3 4 -6 -2 -5 -13z"/>
<path d="M6874 688 c-3 -4 2 -8 10 -8 8 0 17 4 20 8 3 5 -2 9 -10 9 -8 0 -17
-4 -20 -9z"/>
<path d="M7143 685 c0 -8 4 -12 9 -9 5 3 6 10 3 15 -9 13 -12 11 -12 -6z"/>
<path d="M6810 669 c0 -5 5 -7 10 -4 6 3 10 8 10 11 0 2 -4 4 -10 4 -5 0 -10
-5 -10 -11z"/>
<path d="M6848 643 c7 -3 16 -2 19 1 4 3 -2 6 -13 5 -11 0 -14 -3 -6 -6z"/>
</g>
</svg>
